<svg version="1" xmlns="http://www.w3.org/2000/svg" width="933.333" height="933.333" viewBox="0 0 700.000000 700.000000"><path d="M436.9 33.5c-3.7 2-6 6-6.1 10.5 0 3.1 1.1 5.7 5.1 11.9 12.9 20.2 26.6 45.7 36.1 67.1 10.9 24.6 22.3 60.5 25.5 80.5 4 25 4.8 34 4.9 53 0 23.8-2.2 41.6-8.1 63.5-2.2 8.4-9.7 29.7-10.8 30.8-1.3 1.4-63.1-44.2-108-79.7-17.8-14-45.9-36.5-46.5-37.1-.3-.3-4.1-3.5-8.5-7-7.8-6.4-16.6-13.7-25.5-21.1-2.5-2-7.2-5.9-10.6-8.6-3.3-2.6-8.7-7.1-12-10-3.2-2.8-12.9-10.8-21.4-17.9-8.5-7.1-15.7-13.1-16-13.4-.3-.3-4.8-4.1-10-8.5-11.3-9.5-11.2-9.4-26.6-22.6-6.6-5.7-14.7-12.7-17.9-15.4-3.3-2.8-8.4-7.2-11.4-9.9-9.7-8.4-15-9.5-21.6-4.2-2.5 2-3 3.1-3.1 7.7-.2 5.9-1.1 4.3 22.3 38.7 13.4 19.6 50.6 71.7 52.3 73.2.3.3 2.3 3 4.5 6s4.3 5.9 4.8 6.5c.4.5 6.7 8.6 13.8 18 7.2 9.3 15.2 19.5 17.7 22.5 7.4 8.9 7.9 9.6 6.2 8.4-5.3-3.8-38.2-28.4-41.5-31-2.2-1.8-10.1-8-17.5-13.9s-14.4-11.4-15.5-12.3c-1.1-1-6.8-5.5-12.5-10.2-10.8-8.7-42.9-35.2-51-41.9-13.1-11.1-20.7-17.4-22-18.4-.8-.7-5.7-4.7-10.7-8.9-12-10-11.7-9.8-20-8.9-2 .2-7.3 5.9-7.4 7.8 0 1-.2 2.7-.4 3.8-.9 4.4 21.6 38.8 51.7 79.2 7 9.4 13.3 17.7 14 18.5.7.7 2.6 3.1 4.3 5.3 3.8 5.1 31 37.8 37.3 44.8 2.6 2.9 6.1 6.9 7.7 8.9 3.1 3.6 15.2 17 26 28.7 23.3 25.1 69.5 71.2 96.1 95.7 15.1 14 16 14.8 24.3 22.3 4.1 3.6 9.3 8.3 11.5 10.3 2.3 2 9.6 8.3 16.3 14 6.7 5.7 12.2 10.6 12.2 11 .3 2.3-40.9 15.8-55.9 18.3-1.9.3-4.6.7-6 1-1.4.3-4 .7-5.7 1-1.8.3-4.5.7-6 .9-9 1.5-21.4 2.1-41.3 2.1-21.8 0-29.1-.4-45-2.6-4.1-.6-8.6-1.2-10-1.4-20.2-2.8-50.5-10.3-75.8-19-34.4-11.7-70.7-28.1-96.6-43.8-8.4-5.1-10.9-6.1-14.8-6.1-3.5-.1-5.2.5-7.1 2.2-3.5 3.3-5 7.5-4.3 11.5.5 2.5 10.8 18.5 16.3 25.2.4.5 3.9 4.8 7.7 9.5 23.1 28.2 54.6 56.7 97.9 88.5 7.8 5.8 14.7 10.9 15.3 11.4 3.9 3.2 31.1 21.2 41.9 27.6 43.4 26.1 95.2 46.2 139.5 54 4.7.8 9.6 1.7 11 2 1.4.3 5.2.8 8.5 1.1 3.3.4 6.2.8 6.5 1 1.6.8 22.6 1.8 39 1.9 19.2 0 34.2-.8 44.5-2.5 3.3-.5 7.4-1.1 9-1.4 12.4-1.7 42-9.5 50-13 1.7-.8 4.1-1.7 5.5-2.1 3.2-1 25.2-11.6 30.9-15 7.7-4.6 15.4-10.1 22.9-16.4 4-3.4 8.9-7 11-8.1 14.7-7.6 36.4-5.5 59 5.9 15.3 7.7 40.1 25.6 54.7 39.4 8 7.7 13.9 8.7 20 3.4 2.6-2.2 4.7-8.5 5.9-17.7.4-2.5 1-7.2 1.5-10.5.9-6.1.7-37.2-.3-43.5-.3-1.9-.8-5.3-1.1-7.5-1.3-8.8-5-22.6-9.7-35.5-2.6-7.3-11.7-26.4-14-29.5-.4-.6-3.3-4.8-6.4-9.5-3.1-4.7-8.5-11.8-11.9-15.8l-6.2-7.2 2.8-10.3c3-10.9 6.4-28 7.4-36.2.3-2.8 1-8.4 1.4-12.5.9-7.6.7-51.4-.3-56-.2-1.4-.7-5.2-1.1-8.5-.3-3.3-.8-6.9-1-8-.2-1.1-.7-3.8-1-6-1.9-13.8-9.2-42.3-15.5-61-9.2-26.7-24.7-60.1-39.4-84.5-3.9-6.4-20.2-31.5-21.8-33.5-.5-.6-3.1-4.2-6-8-6.7-9.1-14.3-18.7-24.8-31-9.2-10.9-41.7-43.8-52-52.7-3.6-3.1-8.8-7.6-11.6-10-6.4-5.6-25.1-20.1-32.9-25.6-6.8-4.8-12.5-6-16.6-3.7z"/></svg>