<svg id="icons" enable-background="new 0 0 64 64" height="512" viewBox="0 0 64 64" width="512" xmlns="http://www.w3.org/2000/svg"><path d="m56.012 33h6v3h-6z" fill="#656d78"/><path d="m62.012 36v7.99h-1-4-1v-7.99z" fill="#e6e9ed"/><path d="m57.012 43.99h4v10.01h-4z" fill="#ccd1d9"/><path d="m62.012 24.01v8.99h-6v-8.99l3-3z" fill="#ed5565"/><path d="m50.991 12v2h-46.97-2.98-.02v-2c0-1.11.89-2 2-2h45.97c1.1 0 2 .89 2 2z" fill="#aab2bd"/><path d="m51.012 14v39.99h-46.991v-39.99h46.97z" fill="#656d78"/><path d="m1.041 14h2.98v39.99h-2.98z" fill="#545c66"/><path d="m4.008 54.997c-.553 0-1-.447-1-1v-39.998c0-.553.447-1 1-1s1 .447 1 1v39.998c0 .553-.447 1-1 1z"/><path d="m4.034 13.003c-.553 0-1.005-.447-1.005-1s.442-1 .994-1h.011c.552 0 1 .447 1 1s-.448 1-1 1z"/><path d="m7.034 13.003c-.553 0-1.005-.447-1.005-1s.442-1 .994-1h.011c.552 0 1 .447 1 1s-.448 1-1 1z"/><path d="m10.034 13.003c-.553 0-1.005-.447-1.005-1s.442-1 .994-1h.011c.552 0 1 .447 1 1s-.448 1-1 1z"/><path d="m50.989 54.997h-49.968c-.553 0-1-.447-1-1v-39.994c0-.553.447-1 1-1h49.968c.553 0 1 .447 1 1v39.994c0 .553-.447 1-1 1zm-48.968-2h47.968v-37.994h-47.968z"/><path d="m1.004 13.003c-.553 0-1-.447-1-1 0-1.654 1.346-3 3-3 .553 0 1 .447 1 1s-.447 1-1 1c-.552 0-1 .448-1 1 0 .553-.447 1-1 1z"/><path d="m1.004 15.003c-.553 0-1-.447-1-1v-2c0-.553.447-1 1-1s1 .447 1 1v2c0 .553-.447 1-1 1z"/><path d="m50.972 13.003c-.553 0-1-.447-1-1 0-.552-.448-1-1-1-.553 0-1-.447-1-1s.447-1 1-1c1.654 0 3 1.346 3 3 0 .553-.448 1-1 1z"/><path d="m50.972 15.003c-.553 0-1-.447-1-1v-2c0-.553.447-1 1-1s1 .447 1 1v2c0 .553-.448 1-1 1z"/><path d="m48.972 11.003h-45.968c-.553 0-1-.447-1-1s.447-1 1-1h45.968c.553 0 1 .447 1 1s-.448 1-1 1z"/><path d="m27.01 18.999h-19.002c-.553 0-1-.447-1-1s.447-1 1-1h19.002c.553 0 1 .447 1 1s-.447 1-1 1z"/><path d="m30.01 22.999h-20.002c-.553 0-1-.447-1-1s.447-1 1-1h20.002c.553 0 1 .447 1 1s-.447 1-1 1z"/><path d="m24.012 47.015h-14.004c-.553 0-1-.447-1-1s.447-1 1-1h14.004c.553 0 1 .447 1 1s-.448 1-1 1z"/><path d="m36.01 22.999h-2c-.553 0-1-.447-1-1s.447-1 1-1h2c.553 0 1 .447 1 1s-.447 1-1 1z"/><path d="m14.008 51.003h-6c-.553 0-1-.447-1-1s.447-1 1-1h6c.553 0 1 .447 1 1s-.447 1-1 1z"/><path d="m16.008 26.999h-4c-.553 0-1-.447-1-1s.447-1 1-1h4c.553 0 1 .447 1 1s-.447 1-1 1z"/><path d="m41.01 26.999h-21.002c-.553 0-1-.447-1-1s.447-1 1-1h21.002c.553 0 1 .447 1 1s-.447 1-1 1z"/><path d="m35.01 30.999h-23.002c-.553 0-1-.447-1-1s.447-1 1-1h23.002c.553 0 1 .447 1 1s-.447 1-1 1z"/><path d="m25.01 34.999h-13.002c-.553 0-1-.447-1-1s.447-1 1-1h13.002c.553 0 1 .447 1 1s-.447 1-1 1z"/><path d="m34.019 43.007h-22.011c-.553 0-1-.447-1-1s.447-1 1-1h22.011c.553 0 1 .447 1 1s-.448 1-1 1z"/><path d="m37.012 38.999h-18.003c-.553 0-1-.447-1-1s.447-1 1-1h18.003c.553 0 1 .447 1 1s-.448 1-1 1z"/><path d="m15.009 38.999h-3.001c-.553 0-1-.447-1-1s.447-1 1-1h3.001c.553 0 1 .447 1 1s-.447 1-1 1z"/><path d="m43.01 30.999h-4c-.553 0-1-.447-1-1s.447-1 1-1h4c.553 0 1 .447 1 1s-.447 1-1 1z"/><path d="m61.996 44.99c-.553 0-1-.447-1-1v-19.563l-1.998-2.002-2.002 2.002v19.563c0 .553-.447 1-1 1s-1-.447-1-1v-19.977c0-.266.105-.52.293-.707l3.002-3.003c.188-.188.441-.293.707-.293.266 0 .521.105.708.294l2.998 3.003c.187.187.292.441.292.706v19.977c0 .553-.447 1-1 1z"/><path d="m62.996 44.99h-8c-.553 0-1-.447-1-1s.447-1 1-1h8c.553 0 1 .447 1 1s-.447 1-1 1z"/><path d="m56.996 55c-.553 0-1-.447-1-1v-10.01c0-.553.447-1 1-1s1 .447 1 1v10.01c0 .553-.447 1-1 1z"/><path d="m60.996 55c-.553 0-1-.447-1-1v-10.01c0-.553.447-1 1-1s1 .447 1 1v10.01c0 .553-.447 1-1 1z"/><path d="m61.996 55h-6c-.553 0-1-.447-1-1s.447-1 1-1h6c.553 0 1 .447 1 1s-.447 1-1 1z"/><path d="m58.998 22.01c-.553 0-1-.447-1-1v-11.01c0-.553.447-1 1-1s1 .447 1 1v11.01c0 .553-.447 1-1 1z"/><path d="m61.996 34.004h-6c-.553 0-1-.447-1-1s.447-1 1-1h6c.553 0 1 .447 1 1s-.447 1-1 1z"/><path d="m61.996 36.999h-6c-.553 0-1-.447-1-1s.447-1 1-1h6c.553 0 1 .447 1 1s-.447 1-1 1z"/><path d="m58.996 28.999c-.553 0-1-.447-1-1v-2c0-.553.447-1 1-1s1 .447 1 1v2c0 .553-.447 1-1 1z"/><path d="m59.026 30.999c-.553 0-1.005-.447-1.005-1s.442-1 .994-1h.011c.552 0 1 .447 1 1s-.448 1-1 1z"/></svg>