<?xml version="1.0" encoding="iso-8859-1"?>
<!-- Generator: Adobe Illustrator 19.0.0, SVG Export Plug-In . SVG Version: 6.00 Build 0)  -->
<svg version="1.1" id="Capa_1" xmlns="http://www.w3.org/2000/svg" xmlns:xlink="http://www.w3.org/1999/xlink" x="0px" y="0px"
	 viewBox="0 0 512.015 512.015" style="enable-background:new 0 0 512.015 512.015;" xml:space="preserve">
<g transform="translate(-1)">
	<rect x="415.912" y="370.766" style="fill:#D1D4D1;" width="70.621" height="141.241"/>
	<path style="fill:#A5A5A4;" d="M301.153,406.077v105.931H71.636V406.077l27.101-26.483c17.479-21.45,18.714-59.674,17.567-67.443
		c1.148,1.412,139.034,1.412,140.182,0c-1.148,7.768,0.088,45.992,17.567,67.443L301.153,406.077z"/>
	<g>
		<path style="fill:#41767F;" d="M151.084,476.697v8.828c-0.017,2.34-0.934,4.585-2.56,6.268l-6.268,6.179v14.036h-17.655v-17.655
			c0.017-2.34,0.934-4.585,2.56-6.268l6.268-6.179v-5.208c0-4.875,3.952-8.828,8.828-8.828S151.084,471.822,151.084,476.697z"/>
		<path style="fill:#41767F;" d="M151.084,414.904c-2.341,0.001-4.587-0.929-6.243-2.585c-1.656-1.656-2.585-3.901-2.585-6.243
			v-26.483c0-2.341,0.93-4.586,2.586-6.241l6.241-6.241v-31.656c0-4.875,3.952-8.828,8.828-8.828s8.828,3.952,8.828,8.828v35.31
			c0,2.341-0.93,4.586-2.586,6.241l-6.241,6.241v22.828c0.001,2.341-0.929,4.587-2.585,6.243
			C155.672,413.975,153.426,414.905,151.084,414.904z"/>
		<path style="fill:#41767F;" d="M248.188,494.353v17.655h-17.655v-14.037l-6.268-6.179c-1.626-1.683-2.543-3.927-2.56-6.267v-8.828
			c0-4.875,3.952-8.828,8.828-8.828s8.828,3.952,8.828,8.828v5.208l6.268,6.18C247.254,489.768,248.171,492.012,248.188,494.353z"/>
		<path style="fill:#41767F;" d="M221.705,414.904c-2.341,0.001-4.587-0.929-6.243-2.585c-1.656-1.656-2.585-3.901-2.585-6.243
			v-22.828l-6.241-6.241c-1.656-1.655-2.587-3.9-2.586-6.242v-35.31c0-4.875,3.952-8.828,8.828-8.828s8.828,3.952,8.828,8.828
			v31.655l6.241,6.241c1.656,1.655,2.587,3.9,2.586,6.242v26.483c0.001,2.341-0.929,4.587-2.585,6.243
			C226.292,413.975,224.047,414.905,221.705,414.904z"/>
	</g>
	<rect x="18.671" y="432.559" style="fill:#BDC3C7;" width="70.621" height="79.448"/>
	<path style="fill:#67B9CC;" d="M89.291,467.87v17.655H71.636c-4.875,0-8.828-3.952-8.828-8.828s3.952-8.828,8.828-8.828H89.291z"/>
	<rect x="283.498" y="423.732" style="fill:#BDC3C7;" width="70.621" height="88.276"/>
	<path style="fill:#67B9CC;" d="M309.981,476.697c-0.014,4.869-3.958,8.813-8.828,8.828h-17.655V467.87h17.655
		C306.023,467.884,309.967,471.828,309.981,476.697z"/>
	<g>
		<path style="fill:#41767F;" d="M151.084,450.215c-1.155-0.014-2.296-0.254-3.358-0.707c-1.068-0.448-2.052-1.075-2.91-1.854
			c-1.661-1.66-2.584-3.919-2.56-6.267c0.015-2.341,0.932-4.586,2.56-6.268c3.539-3.267,8.995-3.267,12.534,0
			c0.353,0.44,0.707,0.879,1.056,1.319c0.335,0.494,0.604,1.03,0.797,1.595c0.253,0.5,0.432,1.034,0.53,1.586
			c0.102,0.584,0.161,1.175,0.177,1.768c0.023,2.348-0.9,4.607-2.56,6.267C155.691,449.315,153.433,450.237,151.084,450.215z"/>
		<path style="fill:#41767F;" d="M186.395,450.215c-2.348,0.023-4.607-0.9-6.267-2.56c-1.66-1.66-2.583-3.919-2.56-6.267
			c0.033-2.337,0.947-4.576,2.56-6.268c0.842-0.799,1.83-1.428,2.909-1.854c3.289-1.379,7.084-0.648,9.625,1.854
			c1.612,1.693,2.526,3.931,2.561,6.268c0.023,2.348-0.9,4.607-2.56,6.267C191.002,449.315,188.743,450.237,186.395,450.215z"/>
		<path style="fill:#41767F;" d="M221.705,450.215c-2.348,0.023-4.607-0.9-6.267-2.56c-1.66-1.66-2.583-3.919-2.56-6.267
			c0.015-2.341,0.932-4.586,2.56-6.268c3.539-3.267,8.995-3.267,12.534,0c0.353,0.44,0.707,0.879,1.056,1.319
			c0.335,0.494,0.604,1.03,0.797,1.595c0.253,0.5,0.432,1.034,0.53,1.586c0.102,0.584,0.161,1.175,0.177,1.768
			c0.006,2.345-0.914,4.597-2.56,6.268C226.311,449.314,224.053,450.236,221.705,450.215z"/>
	</g>
	<path style="fill:#A5A5A4;" d="M96.253,217.255c-2.781,2.5-6.482,3.722-10.205,3.37c-3.723-0.352-7.129-2.247-9.392-5.224
		c-5.098-7.67-8.942-16.103-11.388-24.982c-4.494-9.394-8.043-19.211-10.593-29.308c-2.076-6.432-0.524-13.483,4.061-18.45
		c9.801-7.097,23.449-5.23,30.985,4.237L96.253,217.255z"/>
	<path style="fill:#D1D4D1;" d="M234.593,17.663h-96.397c-27.983,12.094-57.732,40.43-57.732,105.931
		c0,12.534,0.441,25.159,1.059,37.694c0.53,10.593,1.324,21.185,2.472,31.691c1.942,16.772,5.032,33.368,7.327,50.052
		c0.706,4.943,1.501,9.886,2.472,14.83c1.434,8.123,3.5,16.121,6.179,23.923c0.883,2.472,1.854,4.944,2.825,7.328
		c3.231,8.357,7.792,16.138,13.506,23.04c1.144,1.379,2.383,2.677,3.708,3.885c6.921,6.146,14.234,11.837,21.892,17.037
		c7.327,5.209,13.948,11.476,21.363,16.331c7.207,3.389,15.224,4.674,23.128,3.708c7.905,0.966,15.922-0.319,23.128-3.708
		c7.415-4.855,14.036-11.122,21.363-16.331c7.658-5.199,14.971-10.89,21.892-17.037c1.324-1.207,2.563-2.505,3.708-3.885
		c5.714-6.902,10.275-14.682,13.506-23.04c0.971-2.383,1.942-4.855,2.825-7.328c2.679-7.801,4.745-15.8,6.179-23.923
		c0.971-4.944,1.765-9.887,2.472-14.83c2.295-16.684,5.385-33.28,7.327-50.052c1.236-10.505,1.942-21.098,2.472-31.691
		c0.618-12.535,1.059-25.16,1.059-37.694C292.326,58.093,262.577,29.757,234.593,17.663z M115.068,93.316
		c0.2-0.197,0.441-0.348,0.706-0.441c0.69-0.332,1.397-0.627,2.119-0.884C116.911,92.342,115.965,92.786,115.068,93.316z
		 M254.897,91.99c0.721,0.257,1.429,0.552,2.119,0.883c0.265,0.094,0.506,0.244,0.706,0.441
		C256.824,92.785,255.878,92.342,254.897,91.99z"/>
	<path style="fill:#41767F;" d="M292.326,123.594c-9.601-12.495-21.607-22.94-35.31-30.72c-5.45-2.876-11.494-4.447-17.655-4.59
		c-6.015-0.038-11.99,0.978-17.655,3.001c-6.145,2.463-12.054,5.476-17.655,9.004c-5.285,3.405-11.375,5.354-17.655,5.65
		c-6.28-0.295-12.37-2.244-17.655-5.65c-5.601-3.528-11.511-6.542-17.655-9.004c-5.665-2.024-11.64-3.039-17.655-3.001
		c-6.161,0.143-12.205,1.714-17.655,4.59c-13.703,7.78-25.709,18.225-35.31,30.72c0-65.501,29.749-93.837,57.732-105.931h96.397
		C262.577,29.757,292.326,58.093,292.326,123.594z"/>
	<g>
		<circle style="fill:#46B29D;" cx="137.843" cy="180.973" r="22.069"/>
		<circle style="fill:#46B29D;" cx="234.946" cy="180.973" r="22.069"/>
	</g>
	<path style="fill:#F29C1F;" d="M159.912,264.835h52.966c4.875,0,8.828,3.952,8.828,8.828v17.655c0,4.875-3.952,8.828-8.828,8.828
		h-52.966c-4.875,0-8.828-3.952-8.828-8.828v-17.655C151.084,268.788,155.037,264.835,159.912,264.835z"/>
	<rect x="177.567" y="264.835" style="fill:#E57E25;" width="17.655" height="35.31"/>
	<g>
		<path style="fill:#67B9CC;" d="M133.429,88.284v35.31c-0.034,2.337-0.948,4.575-2.56,6.268l-8.828,8.828
			c-3.481,3.414-9.054,3.414-12.535,0c-3.442-3.469-3.442-9.065,0-12.534l6.268-6.18V92.874
			C121.224,89.998,127.268,88.427,133.429,88.284z"/>
		<path style="fill:#67B9CC;" d="M142.257,52.973v8.828c-0.017,2.34-0.934,4.585-2.56,6.268l-6.268,6.179v14.037
			c-6.161,0.143-12.205,1.714-17.655,4.59V70.628c-0.024-2.348,0.899-4.607,2.56-6.268l6.268-6.179v-5.208
			c0-4.875,3.952-8.828,8.828-8.828C138.305,44.146,142.257,48.098,142.257,52.973z"/>
		<path style="fill:#67B9CC;" d="M168.74,100.289v23.305c-0.017,2.34-0.934,4.585-2.56,6.268l-8.828,8.828
			c-3.481,3.414-9.054,3.414-12.535,0c-3.442-3.469-3.442-9.065,0-12.534l6.268-6.18v-28.69
			C157.229,93.748,163.138,96.761,168.74,100.289z"/>
		<path style="fill:#67B9CC;" d="M177.567,52.973v8.828c-0.017,2.34-0.934,4.585-2.56,6.268l-6.268,6.179v26.042
			c-5.601-3.528-11.511-6.542-17.655-9.004V70.628c-0.024-2.348,0.899-4.607,2.56-6.268l6.268-6.179v-5.208
			c0-4.875,3.952-8.828,8.828-8.828S177.567,48.098,177.567,52.973z"/>
		<path style="fill:#67B9CC;" d="M263.283,138.689c-3.481,3.414-9.054,3.414-12.535,0l-8.828-8.828
			c-1.626-1.683-2.543-3.927-2.56-6.268v-35.31c6.161,0.143,12.205,1.714,17.655,4.59v27.101l6.268,6.18
			C266.725,129.624,266.725,135.22,263.283,138.689z"/>
		<path style="fill:#67B9CC;" d="M257.015,70.628v22.246c-5.45-2.876-11.494-4.447-17.655-4.59V74.247l-6.268-6.179
			c-1.661-1.66-2.584-3.919-2.56-6.268v-8.828c0-4.875,3.952-8.828,8.828-8.828s8.828,3.952,8.828,8.828v5.208l6.268,6.18
			C256.082,66.044,256.998,68.288,257.015,70.628z"/>
		<path style="fill:#67B9CC;" d="M227.973,138.689c-3.481,3.414-9.054,3.414-12.535,0l-8.828-8.828
			c-1.626-1.683-2.543-3.927-2.56-6.268v-23.305c5.601-3.528,11.511-6.542,17.655-9.004v3.972c0,0.352-0.177,0.618-0.177,0.883
			c0,0.352,0.177,0.618,0.177,0.971v22.863l6.268,6.18C231.415,129.624,231.415,135.22,227.973,138.689z"/>
		<path style="fill:#67B9CC;" d="M221.705,70.628v20.657c-6.145,2.463-12.054,5.476-17.655,9.004v-3.178
			c0-0.353,0.177-0.619,0.177-0.884c0-0.352-0.177-0.617-0.177-0.97v-21.01l-6.268-6.179c-1.661-1.66-2.584-3.919-2.56-6.268v-8.828
			c0-4.875,3.952-8.828,8.828-8.828s8.828,3.952,8.828,8.828v5.208l6.268,6.18C220.771,66.044,221.688,68.288,221.705,70.628z"/>
		<path style="fill:#67B9CC;" d="M133.429,238.353c-0.014,4.869-3.958,8.813-8.828,8.828h-3.796l-20.833,34.603
			c-2.679-7.801-4.745-15.8-6.179-23.923l14.389-24.011c1.577-2.694,4.47-4.343,7.592-4.325h8.828
			C129.471,229.539,133.415,233.483,133.429,238.353z"/>
		<path style="fill:#67B9CC;" d="M278.996,257.862c-1.434,8.123-3.5,16.121-6.179,23.923l-20.833-34.604h-3.796
			c-4.875,0-8.828-3.952-8.828-8.828s3.952-8.828,8.828-8.828h8.828c3.121-0.018,6.015,1.631,7.592,4.326L278.996,257.862z"/>
	</g>
	<g>
		<circle style="fill:#41767F;" cx="168.74" cy="238.353" r="8.828"/>
		<circle style="fill:#41767F;" cx="204.05" cy="238.353" r="8.828"/>
	</g>
	<path style="fill:#FDD7AD;" d="M504.188,114.766c0,12.534-0.441,25.159-1.059,37.694c-0.53,10.593-1.324,21.185-2.472,31.691
		c-1.942,16.772-5.032,33.368-7.327,50.052c-0.794,5.472-1.677,11.034-2.737,16.506c-1.941,10.119-4.868,20.024-8.739,29.573
		c-3.798,10.076-9.662,19.247-17.214,26.924c-6.921,6.147-14.234,11.838-21.892,17.038c-7.327,5.209-13.948,11.476-21.363,16.331
		c-4.944,2.851-10.645,4.115-16.331,3.619c-2.207,0-4.502,0-6.797,0.088c-2.295-0.088-4.59-0.088-6.797-0.088
		c-5.686,0.495-11.387-0.768-16.331-3.619c-7.415-4.855-14.036-11.122-21.363-16.331c-7.658-5.199-14.971-10.89-21.892-17.037
		c-7.552-7.677-13.415-16.848-17.214-26.924c-3.871-9.549-6.798-19.454-8.739-29.573c-1.059-5.472-1.942-11.034-2.737-16.506
		c-2.295-16.684-5.385-33.28-7.327-50.052c-1.236-10.505-1.942-21.098-2.472-31.691c-0.618-12.536-1.059-25.16-1.059-37.695
		c0-3.884,0.088-7.592,0.353-11.211c0.088-2.56,0.265-5.032,0.53-7.503c0.088-1.059,0.177-2.031,0.265-3.09
		c0.016-0.359,0.075-0.715,0.177-1.06c0.089-1.305,0.266-2.602,0.53-3.884c5.756-35.147,28.961-64.968,61.617-79.183
		c27.084-11.77,57.838-11.77,84.921,0c32.656,14.215,55.861,44.036,61.617,79.183c0.263,1.281,0.44,2.579,0.53,3.884
		c0.102,0.345,0.161,0.701,0.177,1.06c0.088,1.058,0.177,2.03,0.265,3.09c0.265,2.471,0.441,4.943,0.53,7.503
		C504.1,107.175,504.188,110.883,504.188,114.766z"/>
	<g>
		<path style="fill:#4482C3;" d="M380.602,172.146c0,0-11.854,22.069-26.477,22.069c-14.623,0-26.477-22.069-26.477-22.069
			s11.854-22.069,26.477-22.069S380.602,172.146,380.602,172.146z"/>
		<path style="fill:#4482C3;" d="M468.889,172.146c0,0-11.859,22.069-26.489,22.069c-14.629,0-26.489-22.069-26.489-22.069
			s11.859-22.069,26.489-22.069C457.03,150.077,468.889,172.146,468.889,172.146z"/>
	</g>
	<g>
		<path style="fill:#CBB292;" d="M422.333,253.421c2.251-2.226,3.138-5.486,2.324-8.545c-0.814-3.059-3.203-5.448-6.262-6.262
			c-3.059-0.813-6.32,0.074-8.545,2.325c-1.957,1.831-4.154,3.389-6.529,4.631l-0.112,0.032c-0.832,0.434-1.697,0.803-2.586,1.105
			c-0.408,0.121-0.825,0.212-1.247,0.27c-0.664,0.249-1.395,0.249-2.059,0c-0.422-0.059-0.839-0.149-1.247-0.27
			c-0.889-0.301-1.753-0.671-2.586-1.105l-0.112-0.032c-2.376-1.242-4.572-2.8-6.529-4.631c-3.456-3.394-9.001-3.369-12.426,0.056
			c-3.425,3.425-3.45,8.97-0.056,12.426c4.913,4.758,10.859,8.317,17.373,10.399c0.211,0.059,0.426,0.122,0.636,0.177
			c1.92,0.523,3.898,0.805,5.887,0.839l0.09-0.013l0.09,0.013c1.99-0.034,3.967-0.316,5.887-0.839
			c0.21-0.055,0.425-0.117,0.636-0.177C411.474,261.738,417.42,258.179,422.333,253.421z"/>
		<path style="fill:#CBB292;" d="M397.994,308.922c-8.215-0.04-16.286-2.154-23.465-6.147l-6.897-3.663
			c-2.786-1.479-4.571-4.332-4.683-7.485c-0.111-3.152,1.469-6.125,4.144-7.796c2.675-1.671,6.039-1.788,8.823-0.306l6.974,3.707
			c6.703,3.819,14.603,4.959,22.112,3.19c3.064-0.744,6.293,0.204,8.469,2.486c2.176,2.282,2.97,5.552,2.082,8.578
			c-0.888,3.026-3.323,5.348-6.387,6.092C405.509,308.471,401.758,308.922,397.994,308.922z"/>
	</g>
	<path style="fill:#A5A5A4;" d="M513.015,308.973c0,26.483-26.483,79.448-26.483,79.448h-70.621
		c-6.245-13.971-9.923-28.952-10.858-44.226c-0.986-11.778-0.302-23.636,2.03-35.222v-51.994
		c-0.178-9.38,6.756-17.381,16.066-18.538c4.93-0.419,9.81,1.239,13.464,4.574s5.749,8.045,5.78,12.993
		c0,11.565-0.53,57.998,1.324,62.323c2.119,5.031,5.561,1.235,8.386-0.795c4.355-3.222,8.539-6.669,12.535-10.328
		c7.55-7.644,13.414-16.786,17.214-26.836v-0.088c0.971-2.383,1.942-4.767,2.737-7.239c0.618-1.677,1.147-3.442,1.677-5.12
		c0.441-1.324,0.794-2.559,1.148-3.885c1.236-4.414,2.295-8.828,3.178-13.33C500.657,268.454,513.015,293.348,513.015,308.973z"/>
	<path style="fill:#805333;" d="M503.923,105.232c-9.181-26.129-43.873-43.431-43.873-43.431c0,26.483-44.138,52.966-44.138,52.966
		c-8.828-17.655-8.828-26.483-44.138-44.138c-32.397-16.244-72.298,19.686-78.566,25.599v-0.176c0.088-1.059,0.177-2.031,0.265-3.09
		c0.016-0.359,0.075-0.715,0.177-1.06c0.089-1.305,0.266-2.602,0.53-3.884c5.756-35.147,28.961-64.968,61.617-79.183
		c27.084-11.77,57.838-11.77,84.921,0c32.656,14.215,55.861,44.036,61.617,79.183c0.263,1.281,0.44,2.579,0.53,3.884
		c0.102,0.345,0.161,0.701,0.177,1.06c0.088,1.058,0.177,2.03,0.265,3.09c0.265,2.471,0.441,4.943,0.53,7.503
		C503.835,104.085,503.923,104.703,503.923,105.232z"/>
	<g>
		<path style="fill:#D1D4D1;" d="M106.946,414.904v17.655c-0.014,4.869-3.958,8.813-8.828,8.828H9.843
			c-4.869-0.014-8.813-3.958-8.828-8.828v-17.655c-0.245-10.046,2.423-19.949,7.68-28.513c10.011-15.26,27.035-24.453,45.286-24.453
			s35.275,9.192,45.286,24.453C104.524,394.955,107.191,404.858,106.946,414.904z"/>
		<path style="fill:#D1D4D1;" d="M371.774,414.904v17.655c-0.014,4.869-3.958,8.813-8.828,8.828h-88.276
			c-4.869-0.014-8.813-3.958-8.828-8.828v-17.655c-0.245-10.046,2.423-19.949,7.68-28.513c10.011-15.26,27.034-24.453,45.285-24.453
			c18.251,0,35.275,9.192,45.286,24.453C369.352,394.955,372.019,404.858,371.774,414.904z"/>
	</g>
	<g>
		<path style="fill:#67B9CC;" d="M345.291,406.077l0,35.31h-17.655V411.55l-12.8-6.444c-4.312-2.208-6.029-7.485-3.843-11.808
			c2.186-4.323,7.453-6.068,11.788-3.905l17.655,8.828C343.422,399.697,345.306,402.746,345.291,406.077z"/>
		<path style="fill:#67B9CC;" d="M57.953,405.106l-12.8,6.444v29.837H27.498l0-35.31c-0.015-3.331,1.869-6.38,4.855-7.857
			l17.655-8.828c4.334-2.163,9.602-0.418,11.788,3.905C63.982,397.621,62.265,402.897,57.953,405.106z"/>
	</g>
</g>
<g>
</g>
<g>
</g>
<g>
</g>
<g>
</g>
<g>
</g>
<g>
</g>
<g>
</g>
<g>
</g>
<g>
</g>
<g>
</g>
<g>
</g>
<g>
</g>
<g>
</g>
<g>
</g>
<g>
</g>
</svg>
